<?xml version="1.0" standalone="no"?><!DOCTYPE svg PUBLIC "-//W3C//DTD SVG 1.1//EN" "http://www.w3.org/Graphics/SVG/1.1/DTD/svg11.dtd"><svg t="1734317744259" class="icon" viewBox="0 0 1024 1024" version="1.1" xmlns="http://www.w3.org/2000/svg" p-id="7767" xmlns:xlink="http://www.w3.org/1999/xlink" width="200" height="200"><path d="M995.9424 542.5152a202.3424 202.3424 0 0 0-131.2768-127.5904 206.6432 206.6432 0 0 0-37.2736-7.168 167.7312 167.7312 0 0 0-17.8176 0h-34.6112a214.8352 214.8352 0 0 0-191.2832 213.6064h-83.1488l102.4 116.1216 102.4-116.1216h-81.92a173.8752 173.8752 0 0 1 154.624-172.8512h44.4416a156.4672 156.4672 0 0 1 133.5296 107.52 163.84 163.84 0 0 1 9.216 54.4768v21.9136A169.3696 169.3696 0 0 1 960.512 675.84a160.768 160.768 0 0 1-132.096 117.3504H208.6912a161.3824 161.3824 0 0 1-143.36-161.9968v-20.6848a161.3824 161.3824 0 0 1 143.36-162.2016 73.5232 73.5232 0 0 0 66.7648-70.2464c0-2.6624 0-5.12 1.2288-7.7824A246.784 246.784 0 0 1 518.144 143.36a235.9296 235.9296 0 0 1 170.5984 73.3184 254.3616 254.3616 0 0 1 34.6112 44.8512 20.48 20.48 0 0 0 35.0208-20.48 302.4896 302.4896 0 0 0-40.96-52.224A276.48 276.48 0 0 0 518.144 102.4a288.3584 288.3584 0 0 0-281.6 264.3968 16.9984 16.9984 0 0 1 0 4.5056v3.6864a32.9728 32.9728 0 0 1-29.4912 32.5632 202.5472 202.5472 0 0 0-181.6576 202.9568v21.9136A202.9568 202.9568 0 0 0 204.8 835.3792h628.5312a201.728 201.728 0 0 0 166.7072-147.0464 208.896 208.896 0 0 0 7.3728-55.0912v-22.7328a207.0528 207.0528 0 0 0-11.4688-67.9936z" fill="#3895E4" p-id="7768"></path></svg>